<?xml version="1.0" standalone="no"?>
<!DOCTYPE svg PUBLIC "-//W3C//DTD SVG 20010904//EN"
 "http://www.w3.org/TR/2001/REC-SVG-20010904/DTD/svg10.dtd">
<svg version="1.0" xmlns="http://www.w3.org/2000/svg"
 width="1248.000000pt" height="832.000000pt" viewBox="0 0 1248.000000 832.000000"
 preserveAspectRatio="xMidYMid meet">

<g transform="translate(0.000000,832.000000) scale(0.100000,-0.100000)"
fill="#000000" stroke="none">
<path d="M8582 4660 c-1 -223 -5 -415 -8 -427 -6 -22 -41 -28 -55 -10 -3 4 -9
-72 -12 -170 -10 -275 -59 -438 -170 -559 -109 -120 -224 -164 -447 -172 -127
-4 -156 -2 -223 17 -148 40 -245 105 -317 211 -91 134 -119 279 -122 631 -1
129 -3 214 -5 189 -8 -116 -15 -151 -28 -147 -7 3 -18 0 -24 -6 -6 -6 -12 -9
-13 -6 -1 2 -4 112 -8 244 l-6 240 -2 -355 c-2 -355 1 -397 38 -590 13 -63 61
-175 101 -235 44 -66 136 -150 197 -183 31 -17 91 -41 132 -54 67 -21 94 -23
260 -23 163 0 193 3 255 22 189 60 342 206 400 381 54 166 67 351 63 947 l-3
460 -3 -405z"/>
<path d="M5828 5013 c7 -3 16 -2 19 1 4 3 -2 6 -13 5 -11 0 -14 -3 -6 -6z"/>
<path d="M2373 5003 c26 -2 67 -2 90 0 23 2 2 3 -48 3 -49 0 -68 -1 -42 -3z"/>
<path d="M2678 5003 c17 -2 47 -2 65 0 17 2 3 4 -33 4 -36 0 -50 -2 -32 -4z"/>
<path d="M2920 5006 c0 -2 7 -6 15 -10 8 -3 15 -1 15 4 0 6 -7 10 -15 10 -8 0
-15 -2 -15 -4z"/>
<path d="M3760 5000 c0 -5 7 -7 15 -4 8 4 15 8 15 10 0 2 -7 4 -15 4 -8 0 -15
-4 -15 -10z"/>
<path d="M4308 5003 c34 -2 90 -2 125 0 34 2 6 3 -63 3 -69 0 -97 -1 -62 -3z"/>
<path d="M4873 5003 c9 -2 23 -2 30 0 6 3 -1 5 -18 5 -16 0 -22 -2 -12 -5z"/>
<path d="M6512 4904 c10 -10 20 -16 22 -13 3 3 -5 11 -17 18 -21 13 -21 12 -5
-5z"/>
<path d="M5462 4600 c0 -19 2 -27 5 -17 2 9 2 25 0 35 -3 9 -5 1 -5 -18z"/>
<path d="M3686 3847 c2 -355 7 -554 14 -567 10 -19 25 -19 633 -17 342 1 628
6 635 10 6 5 12 19 12 33 l0 24 -593 0 c-459 0 -597 3 -610 13 -15 11 -16 49
-14 409 1 218 5 399 8 402 3 4 237 9 520 11 456 4 514 6 522 21 5 8 6 18 3 21
-3 4 -6 2 -6 -4 0 -11 -1066 -11 -1077 0 -3 4 -12 2 -19 -4 -17 -14 -23 11
-27 116 -2 44 -2 -166 -1 -468z"/>
<path d="M9345 4362 c16 -16 87 -53 92 -48 3 2 -19 17 -49 31 -29 15 -48 23
-43 17z"/>
<path d="M5680 4326 c0 -2 7 -7 16 -10 8 -3 12 -2 9 4 -6 10 -25 14 -25 6z"/>
<path d="M5730 4307 c0 -8 130 -50 136 -44 3 3 -19 12 -50 21 -30 9 -62 19
-71 22 -8 3 -15 4 -15 1z"/>
<path d="M3012 4231 c-2 -27 -5 -31 -15 -22 -10 8 -19 7 -33 -3 -17 -13 -19
-26 -17 -108 2 -51 -2 -183 -7 -292 -12 -248 -26 -299 -110 -386 -75 -79 -138
-102 -275 -101 -165 0 -290 47 -393 146 -52 52 -57 54 -74 38 -28 -25 -22 -45
30 -94 67 -65 101 -86 195 -122 79 -30 87 -31 242 -32 l160 0 67 33 c78 38
144 106 184 190 43 92 55 204 51 514 -1 150 -3 258 -5 239z"/>
<path d="M5888 4253 c7 -3 16 -2 19 1 4 3 -2 6 -13 5 -11 0 -14 -3 -6 -6z"/>
<path d="M9635 4251 c6 -5 39 -18 75 -30 l65 -20 -128 3 -128 2 58 -18 c32
-10 105 -30 163 -44 402 -96 540 -189 565 -380 8 -64 -9 -164 -40 -224 -27
-52 -95 -119 -152 -148 -94 -48 -172 -64 -338 -69 -135 -4 -175 -2 -256 16
-134 28 -248 74 -342 138 -79 54 -80 54 -99 35 -27 -27 -13 -50 57 -96 83 -55
189 -102 300 -133 95 -27 111 -28 310 -28 203 1 213 2 290 28 141 49 244 124
295 212 61 106 72 299 24 401 -62 129 -240 235 -514 304 -63 16 -137 36 -165
45 -27 8 -45 11 -40 6z"/>
<path d="M5950 4235 c19 -7 42 -13 50 -13 8 0 -1 6 -20 13 -19 7 -42 13 -50
13 -8 0 1 -6 20 -13z"/>
<path d="M4043 4233 c131 -2 343 -2 470 0 128 1 21 2 -238 2 -258 0 -363 -1
-232 -2z"/>
<path d="M4763 4233 c9 -2 23 -2 30 0 6 3 -1 5 -18 5 -16 0 -22 -2 -12 -5z"/>
<path d="M5913 4172 c297 -79 357 -97 434 -134 93 -43 180 -120 209 -184 14
-30 18 -66 18 -149 1 -109 0 -112 -34 -169 -70 -118 -220 -196 -413 -216 -108
-11 -284 2 -396 30 -100 24 -250 95 -308 144 -46 40 -69 39 -80 -2 -9 -35 34
-70 162 -132 191 -92 419 -131 640 -109 316 32 514 207 515 455 0 69 -18 161
-40 204 -49 96 -186 186 -378 250 l-127 42 -162 2 -163 1 123 -33z"/>
</g>
</svg>
