<?xml version="1.0" standalone="no"?>
<!DOCTYPE svg PUBLIC "-//W3C//DTD SVG 20010904//EN"
 "http://www.w3.org/TR/2001/REC-SVG-20010904/DTD/svg10.dtd">
<svg version="1.0" xmlns="http://www.w3.org/2000/svg"
 width="1248.000000pt" height="832.000000pt" viewBox="0 0 1248.000000 832.000000"
 preserveAspectRatio="xMidYMid meet">

<g transform="translate(0.000000,832.000000) scale(0.100000,-0.100000)"
fill="#000000" stroke="none">
<path d="M0 4160 l0 -4160 6240 0 6240 0 0 4160 0 4160 -6240 0 -6240 0 0
-4160z m6175 929 c155 -21 327 -81 394 -136 21 -17 22 -22 11 -44 -7 -13 -14
-26 -16 -28 -1 -2 -17 7 -33 18 -47 34 -150 78 -237 101 -112 31 -348 39 -465
16 -224 -44 -355 -170 -367 -351 -6 -104 15 -169 79 -240 66 -71 162 -118 359
-175 80 -23 147 -44 149 -46 12 -11 -213 -1 -269 12 -96 23 -219 86 -278 141
-116 109 -151 307 -81 461 45 97 167 195 297 237 131 42 306 55 457 34z m3853
-23 c93 -24 232 -84 264 -113 21 -19 22 -32 3 -57 -13 -18 -15 -18 -42 2 -96
68 -249 118 -399 130 -315 27 -553 -62 -637 -238 -17 -36 -21 -64 -21 -140 -1
-117 22 -177 94 -244 75 -70 191 -120 423 -181 37 -10 65 -20 62 -23 -11 -11
-218 0 -273 14 -84 21 -210 85 -264 133 -29 26 -60 67 -80 109 -32 64 -33 71
-33 187 0 110 2 124 27 175 57 116 186 209 343 249 115 29 124 30 290 26 119
-3 169 -9 243 -29z m-7008 -388 c0 -424 -4 -486 -25 -468 -9 8 -15 8 -20 0
-21 -34 -25 33 -25 400 l0 400 -322 2 c-302 3 -323 4 -326 21 -9 48 -16 47
363 47 l355 0 0 -402z m1828 396 l92 -7 0 -28 0 -29 -590 0 -590 0 0 -390 0
-390 530 0 c451 0 530 -2 530 -14 0 -14 -67 -26 -165 -28 -138 -3 -945 11
-954 16 -8 5 -11 132 -11 442 l0 434 533 0 c294 0 575 -3 625 -6z m2372 -408
c0 -228 -3 -421 -6 -430 -3 -9 -15 -16 -25 -16 -10 0 -19 -6 -20 -12 -1 -7 -5
-2 -9 12 -4 14 -8 213 -9 443 l-1 417 35 0 35 0 0 -414z m1344 408 c14 -5 16
-51 16 -413 0 -223 -3 -415 -6 -427 -4 -15 -14 -21 -35 -22 l-29 -1 0 435 c0
421 1 434 19 434 11 0 26 -3 35 -6z m3385 -4340 c27 -63 90 -123 156 -151 25
-10 45 -20 45 -23 0 -3 -25 -16 -56 -29 -63 -27 -123 -90 -151 -156 -10 -25
-20 -45 -23 -45 -3 0 -16 25 -29 56 -27 63 -90 123 -156 151 -25 10 -45 20
-45 23 0 3 25 16 56 29 63 27 123 90 151 156 10 25 20 45 23 45 3 0 16 -25 29
-56z"/>
</g>
</svg>
